HIERARCHY
ROOT Hips
{
  OFFSET 3.13124 94.3669 -3.18751
  CHANNELS  6 Xposition Yposition Zposition Zrotation Xrotation Yrotation
  JOINT LeftUpLeg
  {
    OFFSET 8.64259 1.95398 -2.38835
    CHANNELS 3 Zrotation Xrotation Yrotation
    JOINT LeftLeg
    {
      OFFSET 43.7702 0 0
      CHANNELS 3 Zrotation Xrotation Yrotation
      JOINT LeftFoot
      {
        OFFSET 40.6238 0 0
        CHANNELS 3 Zrotation Xrotation Yrotation
        JOINT LeftToeBase
        {
          OFFSET 12.7242 0 0
          CHANNELS 3 Zrotation Xrotation Yrotation
          End Site
          {
            OFFSET 0 0 0
          }
        }
      }
    }
  }
  JOINT RightUpLeg
  {
    OFFSET -8.2249 1.95398 -2.59336
    CHANNELS 3 Zrotation Xrotation Yrotation
    JOINT RightLeg
    {
      OFFSET 43.5653 0 0
      CHANNELS 3 Zrotation Xrotation Yrotation
      JOINT RightFoot
      {
        OFFSET 40.6238 0 0
        CHANNELS 3 Zrotation Xrotation Yrotation
        JOINT RightToeBase
        {
          OFFSET 12.7242 0 0
          CHANNELS 3 Zrotation Xrotation Yrotation
          End Site
          {
            OFFSET 0 0 0
          }
        }
      }
    }
  }
  JOINT Spine
  {
    OFFSET 0.165834 0.87714 6.61349
    CHANNELS 3 Zrotation Xrotation Yrotation
    JOINT Spine1
    {
      OFFSET 7.38962 1.71661e-005 0
      CHANNELS 3 Zrotation Xrotation Yrotation
      JOINT Spine2
      {
        OFFSET 11.9445 1.14441e-005 0
        CHANNELS 3 Zrotation Xrotation Yrotation
        JOINT Spine3
        {
          OFFSET 14.7254 4.19617e-005 0
          CHANNELS 3 Zrotation Xrotation Yrotation
          JOINT Spine4
          {
            OFFSET 10.9679 0 0
            CHANNELS 3 Zrotation Xrotation Yrotation
            JOINT RightShoulder
            {
              OFFSET 2.46616 -1.6653 3.69651
              CHANNELS 3 Zrotation Xrotation Yrotation
              JOINT RightArm
              {
                OFFSET 13.0012 0 0
                CHANNELS 3 Zrotation Xrotation Yrotation
                JOINT RightForeArm
                {
                  OFFSET 28.7848 1.52588e-005 0
                  CHANNELS 3 Zrotation Xrotation Yrotation
                  JOINT RightHand
                  {
                    OFFSET 26.5688 1.52588e-005 0
                    CHANNELS 3 Zrotation Xrotation Yrotation
                    End Site
                    {
                      OFFSET 0 0 0
                    }
                  }
                }
              }
            }
            JOINT LeftShoulder
            {
              OFFSET 2.38034 -1.29275 -3.75231
              CHANNELS 3 Zrotation Xrotation Yrotation
              JOINT LeftArm
              {
                OFFSET 16.3182 6.10352e-005 0
                CHANNELS 3 Zrotation Xrotation Yrotation
                JOINT LeftForeArm
                {
                  OFFSET 27.0901 0 0
                  CHANNELS 3 Zrotation Xrotation Yrotation
                  JOINT LeftHand
                  {
                    OFFSET 24.5451 1.52588e-005 0
                    CHANNELS 3 Zrotation Xrotation Yrotation
                    End Site
                    {
                      OFFSET 0 0 0
                    }
                  }
                }
              }
            }
            JOINT Neck
            {
              OFFSET 5.0226 -0.0266342 0
              CHANNELS 3 Zrotation Xrotation Yrotation
              JOINT Head
              {
                OFFSET 6.69363 2.86102e-005 0
                CHANNELS 3 Zrotation Xrotation Yrotation
                End Site
                {
                  OFFSET 0 0 0
                }
              }
            }
          }
        }
      }
    }
  }
}
MOTION
Frames:	5
Frame Time:	0.0333333
0.249113 0.626858 0.496655 73.009600 12.286700 66.052900 -179.308000 42.443700 69.407800 -17.317000 -4.128090 -2.024520 41.375600 2.154950 1.035240 28.780800 0.000006 0.000010 -169.186000 49.046600 57.796400 -48.484700 28.644100 1.536630 73.177400 -3.231720 -1.721410 28.780800 0.000013 0.000025 2.838750 9.995340 -93.354700 6.938270 4.044640 -6.491500 -4.743460 3.755680 -6.662360 -27.244600 5.806340 -4.979970 -7.231930 5.806330 -4.979980 91.735400 -21.632600 -106.495000 48.146100 -19.907800 -48.460100 -3.039760 0.052872 -93.848100 -5.379830 -0.320002 -0.016242 -74.029900 -28.142600 104.647000 -26.655200 7.637260 19.566600 13.579000 35.673800 -44.380800 -12.665000 1.889380 -26.090900 -3.864740 0.569883 35.463400 -22.463500 -2.595420 -4.062720
0.506788 1.222723 1.001771 74.568800 12.446400 66.780300 -179.748000 39.991300 71.183900 -14.093600 -0.690410 -1.232460 36.531800 2.037090 0.890972 28.780800 0.000006 0.000010 -171.638000 46.411500 60.522500 -46.485800 29.274700 1.649740 72.315800 -3.393180 -1.809090 28.780800 0.000013 0.000025 2.996020 9.905510 -93.537100 7.097310 4.075940 -6.489280 -4.584310 3.787030 -6.661540 -27.086600 5.835510 -4.968400 -7.073900 5.835520 -4.968390 91.957900 -21.813000 -105.910000 45.488000 -22.293400 -49.137200 -3.461750 0.857260 -93.134300 -5.379830 -0.320002 -0.016242 -73.867100 -28.153900 104.974000 -26.541600 6.192770 19.139000 12.669400 36.011200 -42.660000 -12.077400 1.662470 -24.803600 -3.831320 0.199315 34.705700 -22.415900 -2.812870 -4.517420
0.830307 1.666004 1.521658 76.117900 12.816200 67.419300 -179.916000 37.727200 72.803700 -10.478000 2.645320 -0.529891 30.088600 1.031910 -0.218113 28.780800 0.000006 0.000010 -173.680000 43.727000 62.775900 -44.527700 30.021900 1.771440 71.517400 -3.590440 -1.916580 28.780800 0.000013 0.000025 3.089640 9.807290 -93.631100 7.280930 4.105410 -6.453820 -4.400430 3.818060 -6.627410 -26.904800 5.853020 -4.925610 -6.892120 5.853020 -4.925600 92.122700 -22.036600 -105.441000 44.599400 -23.441800 -49.277000 -3.577030 1.355640 -92.656500 -5.379830 -0.320002 -0.016242 -73.846900 -28.212400 105.008000 -26.596900 4.689290 18.803400 12.887400 36.953400 -41.365500 -11.856900 1.623670 -24.815000 -3.408030 -0.044048 33.716100 -22.756900 -3.071370 -4.457980
1.188618 1.988483 2.076620 77.811900 13.051800 68.134300 -179.796000 35.691600 74.549700 -7.600390 6.462190 0.038811 23.787300 0.168037 -1.425330 28.780800 0.000006 0.000010 -175.459000 40.995300 64.971800 -43.004500 30.914100 1.914980 71.047700 -4.006520 -2.130020 28.780800 0.000013 0.000025 3.265770 9.713790 -93.847000 7.439460 4.129570 -6.420810 -4.241660 3.843630 -6.595520 -26.747800 5.866150 -4.886750 -6.735190 5.866170 -4.886760 92.063100 -22.537700 -105.368000 43.301000 -24.316900 -49.317400 -3.799280 1.820370 -92.644600 -5.379830 -0.320002 -0.016242 -73.751000 -28.369100 105.183000 -26.612200 3.576090 18.435100 14.889300 38.671400 -41.491100 -12.638000 1.756070 -24.712600 -3.451530 -0.467063 33.330700 -22.486900 -3.269130 -5.461380
1.672328 2.273872 2.570459 79.442000 13.411300 69.061600 -179.388000 34.428300 76.321100 -6.046910 10.484700 0.477323 17.909900 -1.015750 -3.312360 28.780800 0.000006 0.000010 -176.987000 38.362800 67.174800 -41.795800 32.340000 2.127530 70.770900 -4.222370 -2.247590 28.780800 0.000013 0.000025 3.484420 9.601620 -94.143000 7.623650 4.137650 -6.395320 -4.057330 3.852820 -6.570400 -26.564600 5.866250 -4.859930 -6.551910 5.866260 -4.859920 92.067800 -22.875600 -105.219000 41.558900 -25.394000 -49.873400 -4.088570 2.272310 -92.688700 -5.379830 -0.320002 -0.016242 -73.725800 -28.338800 105.237000 -26.894500 2.516630 18.326600 15.361500 39.042500 -40.902900 -12.976200 1.792380 -24.454400 -3.216400 -0.681696 32.378600 -22.482800 -3.380960 -5.797820
